<svg width="24" height="24" viewBox="0 0 24 24" fill="none" xmlns="http://www.w3.org/2000/svg">
<path fill-rule="evenodd" clip-rule="evenodd" d="M13.5 13.5V20.9456C13.5 21.5256 12.8595 22 12.0765 22H11.9235C11.1405 22 10.5 21.5256 10.5 20.9456V13.5H3.05333C2.47333 13.5 2 12.8595 2 12.0765V11.9235C2 11.1405 2.47333 10.5 3.05333 10.5H10.5V3.05333C10.5 2.47333 11.1405 2 11.9235 2H12.0765C12.8595 2 13.5 2.47333 13.5 3.05333V10.5H20.9456C21.5256 10.5 22 11.1405 22 11.9235V12.0765C22 12.8595 21.5256 13.5 20.9456 13.5H13.5Z" fill="#A0A0A0"/>
</svg>
