<svg width="33" height="112" viewBox="0 0 33 112" fill="none" xmlns="http://www.w3.org/2000/svg">
<path d="M10.5126 27.4874C12.0973 25.9027 14.259 25 16.5 25V25C18.741 25 20.9027 25.9027 22.4874 27.4874V27.4874C24.0881 29.0881 25 31.2718 25 33.5355V51H8V33.5355C8 31.2718 8.9119 29.0881 10.5126 27.4874V27.4874Z" fill="black"/>
<path d="M13 104H20L19 97V97C17.3951 97.6419 15.6049 97.6419 14 97V97L13 104Z" fill="white"/>
<path d="M20.7678 71.7678C19.6359 70.6359 18.1007 70 16.5 70V70C14.8993 70 13.3641 70.6359 12.2322 71.7678L9.45082 74.5492C9.16216 74.8378 9 75.2293 9 75.6376V89H24V75.6376C24 75.2293 23.8378 74.8378 23.5492 74.5492L20.7678 71.7678Z" fill="black"/>
<path d="M16.5 53C12.3579 53 9 56.3579 9 60.5V60.5C9 64.6421 12.3579 68 16.5 68V68C20.6421 68 24 64.6421 24 60.5V60.5C24 56.3579 20.6421 53 16.5 53V53Z" fill="black"/>
<path fill-rule="evenodd" clip-rule="evenodd" d="M3.5 93H29.5V29C29.5 29 29.5 22 16.5 22C3.5 22 3.5 28.5 3.5 28.5V93ZM12.2322 71.7678C13.3641 70.6359 14.8993 70 16.5 70V70C18.1007 70 19.6359 70.6359 20.7678 71.7678L23.5492 74.5492C23.8378 74.8378 24 75.2293 24 75.6376V89H9V75.6376C9 75.2293 9.16216 74.8378 9.45082 74.5492L12.2322 71.7678ZM22.4874 27.4874C20.9027 25.9027 18.741 25 16.5 25V25C14.259 25 12.0973 25.9027 10.5126 27.4874V27.4874C8.9119 29.0881 8 31.2718 8 33.5355V51H25V33.5355C25 31.2718 24.0881 29.0881 22.4874 27.4874V27.4874ZM16.5 68C12.3579 68 9 64.6421 9 60.5V60.5C9 56.3579 12.3579 53 16.5 53V53C20.6421 53 24 56.3579 24 60.5V60.5C24 64.6421 20.6421 68 16.5 68V68Z" fill="white"/>
<path d="M3.5 93V28.5H0.5V93H3.5Z" fill="white"/>
<path fill-rule="evenodd" clip-rule="evenodd" d="M7 106C6.95863 105.939 6.91218 105.876 6.86104 105.812C3.775 101.916 0.5 97.9701 0.5 93V93H3.5H29.5H32.5V93C32.5 97.9701 29.225 101.916 26.139 105.812C26.0878 105.876 26.0414 105.939 26 106C23.5947 109.549 20.7869 111.5 16.5 111.5C12.2131 111.5 9.40527 109.549 7 106ZM32.5 29V25.2528C32.5 20.8367 31.31 16.4866 28.7929 12.8581C25.1308 7.57887 19.6356 0.5 16.5 0.5C13.3644 0.5 7.86925 7.57887 4.20706 12.8581C1.68996 16.4866 0.5 20.8367 0.5 25.2528V28.5H3.5C3.5 28.5 3.5 22 16.5 22C29.5 22 29.5 29 29.5 29H32.5ZM19 97L20 104H13L14 97V97C15.6049 97.6419 17.3951 97.6419 19 97V97Z" fill="black"/>
<path d="M29.5 29V93H32.5V29H29.5Z" fill="white"/>
</svg>
