<svg width="32" height="32" viewBox="0 0 32 32" fill="none" xmlns="http://www.w3.org/2000/svg">
<rect width="32" height="32" rx="8" fill="white"/>
<g clip-path="url(#clip0_3_751)">
<path d="M23.5567 16.748C23.1733 16.2727 22.6033 16 21.994 16H21C20.448 16 20 16.4473 20 17C20 17.5527 20.448 18 21 18L22.0007 17.992C21.512 20.2527 19.224 21.608 17 21.926V18H17.6667C18.2187 18 18.6667 17.5527 18.6667 17C18.6667 16.4473 18.2187 16 17.6667 16H17V13.816C18.1613 13.402 19 12.302 19 11C19 9.346 17.654 8 16 8C14.346 8 13 9.346 13 11C13 12.302 13.8387 13.4013 15 13.816V16H14.3333C13.7807 16 13.3333 16.4473 13.3333 17C13.3333 17.5527 13.7807 18 14.3333 18H15V21.926C12.7767 21.608 10.4893 20.254 10.006 18H11C11.5527 18 12 17.5527 12 17C12 16.4473 11.5527 16 11 16H10.006C9.39667 16 8.82667 16.2727 8.44334 16.7487C8.06334 17.22 7.918 17.8273 8.04534 18.4153C8.838 22.082 12.6473 24.0007 16.0007 24.0007C19.354 24.0007 23.1633 22.082 23.956 18.4153C24.0827 17.8273 23.938 17.22 23.5573 16.7487L23.5567 16.748ZM16 10C16.5513 10 17 10.4487 17 11C17 11.5513 16.5513 12 16 12C15.4487 12 15 11.5513 15 11C15 10.4487 15.4487 10 16 10Z" fill="black"/>
</g>
<defs>
<clipPath id="clip0_3_751">
<rect width="16" height="16" fill="white" transform="translate(8 8)"/>
</clipPath>
</defs>
</svg>
